# AST/ASF file generated using VICON BodyLanguage
# -----------------------------------------------
:version 1.10
:name VICON
:units
  mass 1.0
  length 0.45
  angle deg
:documentation
   .ast/.asf automatically generated from VICON data using
   VICON BodyBuilder and BodyLanguage model FoxedUp or BRILLIANT.MOD
:root
   order TX TY TZ RX RY RZ
   axis XYZ
   position 0 0 0  
   orientation 0 0 0 
:bonedata
  begin
     id 1 
     name lhipjoint
     direction 0.570549 -0.739093 0.358072 
     length 2.41801 
     axis 0 0 0  XYZ
  end
  begin
     id 2 
     name lfemur
     direction 0.34202 -0.939693 0  
     length 7.44434  
     axis 0 0 20  XYZ
    dof rx ry rz
    limits (-160.0 20.0)
           (-70.0 70.0)
           (-60.0 70.0)
  end
  begin
     id 3 
     name ltibia
     direction 0.34202 -0.939693 0   
     length 7.60047   
     axis 0 0 20   XYZ
    dof rx
    limits (-10.0 170.0)
  end
  begin
     id 4 
     name lfoot
     direction 0.0909041 -0.249757 0.964032   
     length 2.03437   
     axis -90 7.62852e-016 20   XYZ
    dof rx rz
    limits (-45.0 90.0)
           (-70.0 20.0)
  end
  begin
     id 5 
     name ltoes
     direction 1.53547e-011 -4.2174e-011 1   
     length 1.02054   
     axis -90 7.62852e-016 20   XYZ
    dof rx
    limits (-90.0 20.0)
  end
  begin
     id 6 
     name rhipjoint
     direction -0.558096 -0.746754 0.361784   
     length 2.3932  
     axis 0 0 0  XYZ 
  end
  begin
     id 7 
     name rfemur
     direction -0.34202 -0.939693 0   
     length 7.3886   
     axis 0 0 -20   XYZ
    dof rx ry rz
    limits (-160.0 20.0)
           (-70.0 70.0)
           (-70.0 60.0)
  end
  begin
     id 8 
     name rtibia
     direction -0.34202 -0.939693 0   
     length 7.4839   
     axis 0 0 -20   XYZ
    dof rx
    limits (-10.0 170.0)
 end
 begin
     id 9 
     name rfoot
     direction -0.114619 -0.314914 0.942174   
     length 2.25127  
     axis -90 -7.62852e-016 -20   XYZ
    dof rx rz
    limits (-45.0 90.0)
           (-20.0 70.0)
  end
  begin
     id 10 
     name rtoes
     direction -1.53518e-011 -4.21881e-011 1   
     length 1.11821   
     axis -90 -7.62852e-016 -20   XYZ
    dof rx
    limits (-90.0 20.0)
  end
  begin
     id 11 
     name lowerback
     direction -0.00902269 0.996426 -0.0839821   
     length 2.25052   
     axis 0 0 0   XYZ
    dof rx ry rz
    limits (-20.0 45.0)
           (-30.0 30.0)
           (-30.0 30.0)
  end
  begin
     id 12 
     name upperback
     direction 0.0370973 0.999169 -0.0168941   
     length 2.24876   
     axis 0 0 0   XYZ
    dof rx ry rz
    limits (-20.0 45.0)
           (-30.0 30.0)
           (-30.0 30.0)
  end
  begin
     id 13 
     name thorax
     direction 0.0402726 0.998931 0.0227027   
     length 2.26408   
     axis 0 0 0   XYZ
    dof rx ry rz
    limits (-20.0 45.0)
           (-30.0 30.0)
           (-30.0 30.0)
  end
  begin
     id 14 
     name lowerneck
     direction -0.0733697 0.98508 0.155675   
     length 1.58204   
     axis 0 0 0   XYZ
    dof rx ry rz
    limits (-20.0 45.0)
           (-30.0 30.0)
           (-30.0 30.0)
  end
  begin
     id 15 
     name upperneck
     direction 0.0426554 0.993501 -0.105526   
     length 1.61222   
     axis 0 0 0   XYZ
    dof rx ry rz
    limits (-20.0 45.0)
           (-30.0 30.0)
           (-30.0 30.0)
  end
  begin
     id 16
     name head
     direction 0.020792 0.998384 -0.0528868  
     length 1.61527  
     axis 0 0 0   XYZ
    dof rx ry rz
    limits (-20.0 45.0)
           (-30.0 30.0)
           (-30.0 30.0)
  end
  begin
     id 17 
     name lclavicle
     direction 0.967109 0.155462 -0.201325  
     length 3.59357  
     axis 0 0 0   XYZ
    dof ry rz
    limits (-20.0 10.0)
           (0.0 20.0)
  end
  begin
     id 18 
     name lhumerus
     direction 1 -4.48968e-011 2.38195e-027   
     length 5.38154   
     axis 180 -30 -90   XYZ
    dof rx ry rz
    limits (-60.0 90.0)
           (-90.0 90.0)
           (-90.0 90.0)
  end
  begin
     id 19
     name lradius
     direction 1 -4.48961e-011 4.85371e-027   
     length 3.33312   
     axis 180 -30 -90   XYZ
    dof rx
    limits (-10.0 170.0)
  end
  begin
     id 20
     name lwrist
     direction 1 -4.48961e-011 4.76515e-027   
     length 1.66656   
     axis -3.27502e-015 90 90   XYZ
    dof ry
    limits (-180.0 0.0)
 end
  begin
     id 21 
     name lhand
     direction 1 -4.48951e-011 9.53074e-027   
     length 0.710789   
     axis -6.08098e-015 90 90   XYZ
    dof rx rz
    limits (-90.0 90.0)
           (-45.0 45.0)
  end
  begin
     id 22 
     name lfingers
     direction 1 -4.48953e-011 1.90613e-026   
     length 0.573057   
     axis -1.21619e-014 90 90   XYZ
    dof rx
    limits (0.0 90.0)
  end
  begin
     id 23
     name lthumb
     direction 0.707107 -6.34973e-011 0.707107   
     length 0.822798   
     axis -90 45 -9.86923e-015   XYZ
    dof rx rz
    limits (-45.0 45.0)
           (-45.0 45.0)
  end
  begin
     id 24 
     name rclavicle
     direction -0.9585 0.265289 -0.104398   
     length 3.42039  
     axis 0 0 0   XYZ 
    dof ry rz
    limits (-10.0 20.0)
           (-20.0 0.0)
  end
  begin
     id 25 
     name rhumerus
     direction -1 -4.48977e-011 2.21478e-027  
     length 5.16954   
     axis 180 30 90   XYZ
    dof rx ry rz
    limits (-90.0 60.0)
           (-90.0 90.0)
           (-90.0 90.0)
  end
  begin
     id 26 
     name rradius
     direction -1 -4.48967e-011 5.63677e-027   
     length 3.38287   
     axis 180 30 90   XYZ
    dof rx
    limits (-10.0 170.0)
  end
  begin
     id 27 
     name rwrist
     direction -1 -4.48967e-011 4.76501e-027   
     length 1.69144   
     axis -3.27502e-015 -90 -90   XYZ
    dof ry
    limits (-180.0 0.0)
  end
  begin
     id 28
     name rhand
     direction -1 -4.48902e-011 9.53292e-027   
     length 0.817967   
     axis -6.08098e-015 -90 -90   XYZ
    dof rx rz
    limits (-90.0 90.0)
           (-45.0 45.0)
  end
  begin
     id 29
     name rfingers
     direction -1 -4.49012e-011 1.90561e-026   
     length 0.659466   
     axis -1.21619e-014 -90 -90   XYZ
    dof rx
    limits (0.0 90.0)
  end
  begin
     id 30
     name rthumb
     direction -0.707107 -6.34944e-011 0.707107   
     length 0.946865   
     axis -90 -45 9.86923e-015   XYZ
    dof rx rz
    limits (-45.0 45.0)
           (-45.0 45.0)
  end
:hierarchy
  begin
    root lhipjoint rhipjoint lowerback
    lhipjoint lfemur
    lfemur ltibia
    ltibia lfoot
    lfoot ltoes
    rhipjoint rfemur
    rfemur rtibia
    rtibia rfoot
    rfoot rtoes
    lowerback upperback
    upperback thorax
    thorax lowerneck lclavicle rclavicle
    lowerneck upperneck
    upperneck head
    lclavicle lhumerus
    lhumerus lradius
    lradius lwrist
    lwrist lhand lthumb
    lhand lfingers
    rclavicle rhumerus
    rhumerus rradius
    rradius rwrist
    rwrist rhand rthumb
    rhand rfingers
  end

#!OML:ASF F:\twosubjects\two\wednesday\Session 1\Justin1.ASF
:FULLY-SPECIFIED
:DEGREES
1213
root 3.14075 17.5489 10.7918 -179.739 211.293 -538.724
lowerback 7.70103 -0.378338 -2.90522
upperback 3.08661 -0.692994 2.9943
thorax -1.0495 -0.395204 4.79916
lowerneck -18.2732 -5.70046 -10.3119
upperneck 16.3238 -6.30908 6.34901
head 8.63787 -2.98076 3.01304
rclavicle 2.3059e-014 -6.36111e-015
rhumerus 39.552 17.9069 -55.7305
rradius 38.0093
rwrist -0.582847
rhand -19.412 30.724
rfingers 7.12502
rthumb 6.90747 0.856688
lclavicle 2.3059e-014 -6.36111e-015
lhumerus 27.1884 -11.4881 53.8412
lradius 46.0366
lwrist -18.9892
lhand -8.86647 29.5485
lfingers 7.12502
lthumb 17.075 58.8181
rfemur -22.1623 -0.134675 7.22411
rtibia 28.906
rfoot -3.43832 -4.12133
rtoes -19.558
lfemur -12.5293 -1.92799 -7.71257
ltibia 34.2235
lfoot -14.8786 -2.06029
ltoes -28.9801
1214
root 3.04526 17.5416 10.8356 -180.309 210.845 -538.005
lowerback 7.66362 -0.513228 -3.36537
upperback 3.12737 -0.906852 2.7904
thorax -0.959198 -0.506432 4.8641
lowerneck -18.3428 -5.47476 -10.3078
upperneck 16.4911 -6.01523 6.42342
head 8.68282 -2.83509 3.07915
rclavicle -8.94531e-014 2.70347e-014
rhumerus 39.6336 17.8757 -55.5368
rradius 37.9391
rwrist -0.526408
rhand -19.475 30.8278
rfingers 7.12502
rthumb 6.84664 0.958461
lclavicle -8.94531e-014 2.70347e-014
lhumerus 27.2132 -11.0603 53.9189
lradius 45.7013
lwrist -19.2292
lhand -8.95187 29.2824
lfingers 7.12502
lthumb 16.9928 58.5591
rfemur -21.3611 -0.79401 6.54152
rtibia 29.2975
rfoot -3.89054 -2.27985
rtoes -21.433
lfemur -11.9276 -2.60638 -8.3227
ltibia 33.9559
lfoot -15.0551 -1.52211
ltoes -29.6292
1215
root 2.95035 17.5379 10.8573 -180.153 210.756 -538.335
lowerback 7.61947 -0.537602 -3.02824
upperback 3.08281 -0.913102 2.85686
thorax -0.985498 -0.506151 4.74171
lowerneck -18.3292 -5.25999 -10.3111
upperneck 16.7539 -5.70572 6.29881
head 8.73835 -2.70577 3.0818
rclavicle -3.99557e-014 -2.22639e-014
rhumerus 39.6163 17.7922 -55.5062
rradius 37.8915
rwrist -0.338739
rhand -19.2737 30.9553
rfingers 7.12502
rthumb 7.04097 1.09243
lclavicle -3.99557e-014 -2.22639e-014
lhumerus 27.1208 -10.5588 54.2042
lradius 45.5006
lwrist -19.6818
lhand -8.74812 29.4466
lfingers 7.12502
lthumb 17.1889 58.7063
rfemur -21.0242 -0.552189 6.91852
rtibia 29.7413
rfoot -5.03169 -0.65031
rtoes -19.9072
lfemur -11.5522 -2.93309 -7.80541
ltibia 33.658
lfoot -14.953 -1.27969
ltoes -28.3434
1216
root 2.85909 17.5205 10.8774 -180.601 210.566 -537.903
lowerback 7.9306 -0.506062 -3.34645
upperback 3.00624 -0.900573 2.77873
thorax -1.23369 -0.493724 4.84732
lowerneck -18.1174 -5.01546 -10.1579
upperneck 16.9276 -5.35819 5.90433
head 8.71324 -2.57966 2.97291
rclavicle 8.07066e-014 -1.35174e-014
rhumerus 39.4237 17.6917 -55.4355
rradius 37.9226
rwrist -0.124478
rhand -19.0212 30.9633
rfingers 7.12502
rthumb 7.28465 1.10865
lclavicle 8.07066e-014 -1.35174e-014
lhumerus 26.995 -10.4816 54.4082
lradius 45.5266
lwrist -19.7678
lhand -8.59269 29.9751
lfingers 7.12502
lthumb 17.3385 59.2218
rfemur -20.5893 -0.630356 6.64475
rtibia 30.0381
rfoot -6.41422 0.368424
rtoes -19.3255
lfemur -11.0639 -3.36313 -8.07214
ltibia 33.5226
lfoot -14.856 -1.04106
ltoes -25.9886
1217
root 2.77664 17.4944 10.8989 -181.234 210.48 -537.363
lowerback 8.49479 -0.566593 -3.6975
upperback 2.90462 -1.02595 2.5592
thorax -1.63465 -0.544445 4.84179
lowerneck -18.2803 -4.63994 -9.62795
upperneck 17.3707 -4.87631 5.38506
head 8.82327 -2.37557 2.7748
rclavicle -1.57636e-013 2.46493e-014
rhumerus 39.529 17.9625 -55.5347
rradius 37.8382
rwrist 0.134566
rhand -18.9094 30.8634
rfingers 7.12502
rthumb 7.39258 1.01251
lclavicle -1.57636e-013 2.46493e-014
lhumerus 26.5849 -10.2494 54.2149
lradius 45.6894
lwrist -19.6811
lhand -8.62798 30.1555
lfingers 7.12502
lthumb 17.3045 59.4051
rfemur -20.1837 -1.17228 6.39847
rtibia 30.2346
rfoot -6.98245 0.493024
rtoes -21.2633
lfemur -10.4812 -3.7169 -8.5007
ltibia 33.5678
lfoot -15.0326 -0.545803
ltoes -25.0956
1218
root 2.69523 17.4795 10.9204 -181.109 210.518 -537.786
lowerback 8.77244 -0.677836 -3.17837
upperback 2.7305 -1.13628 2.54175
thorax -1.96872 -0.586736 4.54749
lowerneck -18.3858 -4.28756 -9.3159
upperneck 17.8575 -4.43886 5.17333
head 8.96018 -2.17666 2.71317
rclavicle -3.63776e-014 2.14687e-014
rhumerus 39.6521 18.3604 -55.6196
rradius 37.8348
rwrist 0.263592
rhand -18.7313 30.8101
rfingers 7.12502
rthumb 7.56452 0.965348
lclavicle -3.63776e-014 2.14687e-014
lhumerus 26.0638 -9.91334 53.9787
lradius 45.8481
lwrist -19.567
lhand -8.63515 30.1759
lfingers 7.12502
lthumb 17.2976 59.4261
rfemur -20.092 -1.71615 7.1537
rtibia 30.5051
rfoot -7.25549 0.384003
rtoes -22.7564
lfemur -10.2346 -3.78314 -7.95495
ltibia 33.7211
lfoot -15.2222 -0.102709
ltoes -26.0157
